<?xml version="1.0" standalone="no"?>
<!DOCTYPE svg PUBLIC "-//W3C//DTD SVG 20010904//EN"
 "http://www.w3.org/TR/2001/REC-SVG-20010904/DTD/svg10.dtd">
<svg version="1.0" xmlns="http://www.w3.org/2000/svg"
 width="502.000000pt" height="78.000000pt" viewBox="0 0 502.000000 78.000000"
 preserveAspectRatio="xMidYMid meet">

<g transform="translate(0.000000,78.000000) scale(0.100000,-0.100000)"
fill="#000000" stroke="none">
<path d="M500 410 l0 -250 35 0 35 0 0 106 c0 61 5 115 12 127 27 52 71 60
115 23 27 -24 28 -27 31 -140 l4 -116 34 0 34 0 0 108 c0 94 -3 115 -23 152
-37 70 -116 99 -179 66 l-28 -15 0 95 0 94 -35 0 -35 0 0 -250z"/>
<path d="M3498 410 l-3 -250 33 0 32 0 0 250 0 250 -30 0 -29 0 -3 -250z"/>
<path d="M100 615 l0 -35 70 0 70 0 0 -210 0 -210 35 0 35 0 0 210 0 210 65 0
65 0 0 35 0 35 -170 0 -170 0 0 -35z"/>
<path d="M880 636 c-28 -35 11 -93 48 -70 35 22 22 84 -18 84 -10 0 -23 -7
-30 -14z"/>
<path d="M2576 634 c-9 -8 -16 -22 -16 -29 0 -20 28 -45 51 -45 27 0 45 41 30
69 -14 25 -43 27 -65 5z"/>
<path d="M4030 535 c0 -39 -3 -45 -25 -51 -35 -9 -36 -54 -1 -54 24 0 24 -1
28 -114 3 -105 5 -117 27 -140 18 -19 35 -26 62 -26 54 0 67 7 61 35 -3 19
-11 25 -41 27 l-36 3 -3 108 -3 107 46 0 c43 0 45 1 45 30 0 29 -2 30 -45 30
l-45 0 0 45 c0 45 0 45 -35 45 -35 0 -35 0 -35 -45z"/>
<path d="M1086 478 c-49 -28 -86 -95 -86 -153 0 -58 37 -125 86 -153 45 -27
122 -26 152 2 23 20 32 20 32 1 0 -10 10 -15 30 -15 l30 0 0 165 0 165 -30 0
c-20 0 -30 -5 -30 -15 0 -19 -9 -19 -32 1 -30 28 -107 29 -152 2z m123 -52
c70 -37 68 -172 -4 -204 -42 -19 -65 -14 -101 22 -29 29 -34 41 -34 81 0 40 5
52 34 81 37 37 62 42 105 20z"/>
<path d="M1490 483 c-17 -12 -25 -13 -28 -5 -2 7 -17 12 -33 12 l-29 0 0 -165
0 -165 35 0 35 0 0 123 c0 107 2 126 18 140 25 23 55 21 77 -3 16 -17 20 -42
23 -140 l4 -120 29 0 29 0 0 118 c0 90 4 123 16 140 17 25 51 29 80 8 17 -13
19 -29 22 -140 l4 -126 29 0 29 0 0 123 c0 96 -4 129 -18 157 -30 60 -99 78
-152 40 l-29 -20 -33 20 c-40 24 -76 25 -108 3z"/>
<path d="M1976 477 c-49 -27 -86 -93 -86 -152 0 -89 78 -174 159 -175 50 0
112 34 141 77 35 52 36 144 0 196 -51 74 -140 97 -214 54z m136 -66 c30 -27
33 -35 33 -86 0 -51 -3 -59 -33 -86 -35 -32 -57 -35 -97 -17 -71 32 -74 165
-4 204 37 21 66 16 101 -15z"/>
<path d="M2323 485 c-40 -17 -67 -66 -58 -106 8 -34 48 -63 110 -80 49 -13 65
-26 65 -50 0 -39 -76 -53 -110 -19 -17 17 -24 18 -45 8 -31 -14 -31 -23 -1
-53 71 -71 226 -24 226 68 0 49 -25 75 -99 100 -74 26 -97 50 -67 73 27 20 60
18 80 -5 10 -11 24 -18 32 -15 46 14 45 13 34 34 -16 30 -70 60 -105 60 -16
-1 -44 -7 -62 -15z"/>
<path d="M2805 484 c-20 -12 -30 -13 -33 -5 -2 6 -17 11 -33 11 l-29 0 0 -165
0 -165 35 0 35 0 0 114 c0 130 10 153 72 162 30 5 41 2 62 -19 25 -25 26 -31
26 -142 l0 -115 31 0 31 0 -4 135 -3 135 -32 31 c-39 39 -110 49 -158 23z"/>
<path d="M3158 480 c-50 -27 -78 -76 -78 -136 0 -64 27 -113 76 -141 46 -27
90 -29 141 -8 43 18 47 16 38 -23 -15 -71 -111 -104 -188 -63 l-38 19 3 -36
c3 -33 7 -38 43 -50 55 -19 146 -10 185 18 57 41 64 67 68 258 l4 172 -30 0
c-17 0 -32 -5 -34 -12 -3 -9 -14 -7 -40 5 -47 22 -104 21 -150 -3z m145 -60
c35 -28 45 -81 23 -126 -28 -60 -97 -71 -148 -25 -27 24 -33 36 -33 71 0 81
95 129 158 80z"/>
<path d="M4324 486 c-84 -37 -121 -166 -72 -251 44 -77 149 -106 235 -64 48
23 51 29 25 53 -17 15 -22 15 -48 1 -34 -18 -77 -19 -107 -4 -23 12 -56 48
-57 62 0 4 54 7 120 7 l120 0 -1 38 c-2 128 -107 205 -215 158z m107 -59 c18
-13 39 -50 39 -66 0 -7 -32 -11 -85 -11 -97 0 -104 8 -56 59 31 33 73 41 102
18z"/>
<path d="M4706 485 c-20 -11 -33 -12 -40 -5 -5 5 -20 10 -33 10 l-23 0 0 -165
0 -165 35 0 35 0 0 119 c0 117 1 120 26 140 34 27 78 27 104 1 18 -18 20 -33
20 -140 l0 -120 35 0 35 0 -1 113 c0 61 -5 128 -12 147 -23 68 -114 100 -181
65z"/>
<path d="M880 325 l0 -165 30 0 30 0 0 165 0 165 -30 0 -30 0 0 -165z"/>
<path d="M2570 325 l0 -165 35 0 35 0 0 165 0 165 -35 0 -35 0 0 -165z"/>
<path d="M3642 355 l3 -135 31 -31 c40 -40 104 -50 154 -24 23 12 35 14 38 6
2 -6 17 -11 33 -11 l29 0 0 165 0 165 -35 0 -35 0 0 -115 c0 -110 -1 -117 -25
-140 -29 -30 -74 -32 -106 -6 -22 18 -24 27 -27 140 l-4 121 -30 0 -30 0 4
-135z"/>
</g>
</svg>
