<?xml version="1.0" standalone="no"?>
<!DOCTYPE svg PUBLIC "-//W3C//DTD SVG 20010904//EN"
 "http://www.w3.org/TR/2001/REC-SVG-20010904/DTD/svg10.dtd">
<svg version="1.0" xmlns="http://www.w3.org/2000/svg"
 width="150.000000pt" height="158.000000pt" viewBox="0 0 150.000000 158.000000"
 preserveAspectRatio="xMidYMid meet">

<g transform="translate(0.000000,158.000000) scale(0.100000,-0.100000)"
fill="#000000" stroke="none">
<path d="M953 1505 c-33 -39 -48 -92 -38 -125 7 -24 -3 -25 -29 -5 -30 22 -53
18 -60 -10 -4 -14 -11 -23 -16 -20 -6 3 -53 1 -105 -5 -95 -10 -96 -10 -129
15 -18 14 -38 25 -43 25 -11 0 -33 -51 -33 -79 0 -9 -26 -31 -58 -49 -31 -18
-74 -48 -94 -67 -20 -19 -45 -35 -56 -35 -13 0 -22 -9 -26 -26 -4 -15 -25 -57
-47 -93 -60 -99 -81 -176 -87 -311 -5 -138 10 -207 71 -325 73 -142 206 -255
369 -312 64 -23 89 -27 203 -27 117 -1 138 2 209 27 256 90 430 318 443 582
12 221 -94 438 -271 560 -47 32 -55 42 -50 62 7 26 8 39 6 67 -2 15 -8 17 -29
13 -16 -3 -36 -9 -45 -12 -15 -6 -15 -3 -6 29 13 41 0 99 -30 136 l-18 23 -31
-38z m57 -41 c14 -42 -1 -113 -30 -139 -16 -14 -18 -14 -28 12 -20 52 -22 68
-12 102 10 37 38 73 51 66 4 -3 13 -21 19 -41z m-80 -157 c24 -38 27 -107 6
-107 -42 0 -107 110 -90 154 5 14 9 14 35 0 17 -8 39 -29 49 -47z m-343 4 c23
-34 30 -94 15 -119 -6 -9 -15 -5 -34 15 -35 36 -50 79 -42 115 8 38 31 34 61
-11z m499 -16 c-8 -40 -66 -95 -101 -95 -30 0 -31 11 -4 66 14 30 32 48 62 63
46 23 52 18 43 -34z m-382 -51 c18 -46 -8 -135 -44 -154 -47 -25 -40 97 8 153
19 21 28 22 36 1z m188 -51 c36 -39 48 -66 48 -108 l0 -37 -31 19 c-44 25 -70
63 -76 111 -5 37 -3 42 14 42 11 0 31 -12 45 -27z m185 -30 c-7 -41 -45 -86
-88 -104 -39 -15 -45 -7 -30 40 13 44 71 101 103 101 18 0 20 -4 15 -37z
m-486 -22 c41 -41 50 -71 22 -71 -37 1 -102 39 -117 69 -21 41 -21 41 20 41
29 0 44 -8 75 -39z m225 12 c4 -16 11 -33 16 -39 5 -8 1 -13 -12 -17 -15 -4
-20 -13 -20 -36 0 -17 -4 -31 -10 -31 -5 0 -10 17 -10 38 0 42 -21 88 -38 85
-7 -2 -12 4 -12 12 0 11 11 15 40 15 35 0 40 -3 46 -27z m-452 -87 c33 -69 8
-89 -45 -37 -21 22 -29 39 -29 65 l0 37 29 -15 c15 -8 36 -31 45 -50z m392 30
c7 -42 -9 -97 -37 -122 -17 -16 -22 -16 -29 -4 -20 31 -11 97 16 129 33 40 42
39 50 -3z m-245 -20 c-15 -18 1 -61 35 -97 16 -16 22 -29 15 -33 -5 -4 -17 7
-26 24 -8 16 -22 30 -29 30 -15 0 -31 64 -21 80 3 6 13 10 22 10 12 0 13 -3 4
-14z m354 -16 c49 -30 90 -150 51 -150 -20 0 -65 38 -81 70 -15 29 -21 100 -9
100 4 0 21 -9 39 -20z m-407 -15 c16 -35 15 -60 -4 -96 -12 -24 -18 -28 -29
-19 -22 19 -27 65 -11 104 18 43 29 45 44 11z m147 -5 c34 -16 75 -62 75 -84
0 -3 -15 -6 -32 -6 -52 0 -117 52 -118 93 0 22 24 22 75 -3z m465 -1 c0 -12
-10 -38 -21 -59 -17 -30 -31 -41 -63 -49 -47 -12 -50 -10 -42 22 8 35 45 78
80 93 42 18 46 17 46 -7z m87 -53 c-2 -7 -74 -34 -94 -36 -1 0 5 16 13 35 7
19 14 44 14 57 0 20 2 20 35 -12 19 -19 34 -38 32 -44z m-356 -13 c17 -44 -4
-99 -39 -106 -35 -7 -46 4 -38 40 8 36 42 93 56 93 6 0 15 -12 21 -27z m-436
-7 c18 -8 38 -24 44 -35 10 -18 8 -21 -13 -27 -14 -3 -35 -3 -48 1 -29 9 -79
55 -72 67 8 12 51 10 89 -6z m165 -62 c0 -26 -7 -51 -18 -64 l-18 -23 -13 32
c-15 34 -9 94 10 118 11 13 14 13 26 -3 7 -10 13 -37 13 -60z m340 -4 c0 -4
-11 -10 -25 -12 -27 -6 -28 -4 -19 30 6 22 8 22 25 6 11 -9 19 -20 19 -24z
m-227 19 c26 -14 67 -50 67 -59 0 -4 -16 -11 -35 -17 -32 -10 -38 -9 -64 17
-16 16 -31 38 -34 49 -4 17 0 21 20 21 13 0 34 -5 46 -11z m625 -43 c4 -17 0
-18 -32 -13 -32 5 -38 3 -48 -19 -8 -18 -8 -31 0 -49 14 -30 28 -32 42 -5 12
22 50 27 50 7 0 -21 -43 -56 -76 -63 -67 -13 -97 94 -40 143 35 30 99 30 104
-1z m-816 -25 c25 -23 30 -32 21 -42 -17 -17 -76 -3 -107 26 -36 33 -33 45 14
45 30 0 48 -7 72 -29z m133 -2 c7 -22 -7 -39 -32 -39 -16 0 -16 15 -3 41 14
25 27 24 35 -2z m514 -24 c2 -15 -2 -17 -30 -13 -50 8 -59 1 -59 -42 0 -49 15
-58 45 -30 18 17 30 20 54 15 39 -8 47 -21 21 -35 -17 -9 -20 -8 -20 12 0 23
0 23 -13 -2 -14 -27 -76 -53 -103 -43 -40 15 -45 103 -8 138 41 38 105 38 113
0z m-711 -28 l43 -24 -65 -17 c-36 -9 -67 -16 -69 -16 -5 0 9 72 19 99 4 12 7
11 17 -2 6 -9 31 -27 55 -40z m503 -58 c16 -34 28 -67 25 -75 -6 -16 -43 -19
-48 -3 -6 17 -56 -1 -61 -22 -3 -11 -14 -19 -25 -19 -19 0 -19 1 1 79 20 75
36 97 69 100 4 1 22 -26 39 -60z m439 46 c0 -8 -9 -15 -20 -15 -20 0 -26 11
-13 23 12 13 33 7 33 -8z m-590 -39 c0 -8 -9 -17 -20 -21 -17 -5 -19 -14 -17
-68 2 -58 0 -62 -20 -65 -22 -3 -23 0 -23 52 0 53 -1 56 -25 56 -43 0 -29 28
23 43 62 20 82 20 82 3z m230 -61 c0 -8 -9 -15 -20 -15 -20 0 -26 11 -13 23
12 13 33 7 33 -8z m-550 -29 c0 -7 -9 -16 -20 -19 -15 -4 -20 0 -20 14 0 12 7
19 20 19 11 0 20 -6 20 -14z m114 -2 c12 -4 16 -20 16 -55 0 -42 -3 -49 -19
-49 -15 0 -21 8 -23 33 -4 46 -22 39 -26 -10 -3 -35 -7 -43 -23 -43 -16 0 -19
7 -19 53 0 51 1 53 33 64 43 14 43 14 61 7z m-185 -13 c8 -5 11 -16 7 -26 -4
-13 -13 -15 -36 -10 -19 4 -30 3 -30 -4 0 -6 13 -11 28 -11 51 0 71 -50 33
-84 -27 -25 -84 -32 -100 -12 -20 24 -3 39 35 31 41 -7 47 12 7 21 -49 10 -53
13 -53 37 0 45 70 82 109 58z m905 -28 c-22 -122 -101 -242 -202 -311 -35 -23
-70 -42 -77 -42 -10 0 -8 23 7 107 10 59 21 109 23 111 2 3 19 -25 37 -62 32
-66 48 -82 48 -48 -1 23 -37 182 -43 189 -3 3 -19 2 -36 -2 -27 -6 -31 -11
-37 -53 -4 -26 -14 -90 -24 -142 l-16 -95 -7 49 c-4 27 -7 94 -7 150 l0 101
148 42 c81 23 157 42 170 42 21 1 22 -2 16 -36z m-504 13 c0 -8 -7 -16 -15
-20 -10 -4 -15 1 -15 14 0 11 7 20 15 20 8 0 15 -6 15 -14z m-325 -47 c7 -52
-1 -68 -32 -69 -14 0 -19 101 -6 113 18 19 32 3 38 -44z m467 -156 c3 -71 4
-129 3 -131 -1 -1 -14 44 -29 100 -14 57 -29 113 -32 125 -6 20 4 28 42 32 8
1 13 -40 16 -126z m-83 70 c6 -21 22 -80 35 -132 14 -52 24 -96 23 -98 -2 -1
-18 25 -37 60 -18 34 -50 88 -71 119 -22 31 -39 59 -39 62 0 5 51 22 72 25 4
1 12 -16 17 -36z m-83 -56 c48 -72 118 -197 110 -197 -3 0 -26 26 -52 58 -30
37 -56 59 -75 63 -34 8 -45 -6 -55 -71 -4 -23 -12 -44 -19 -47 -23 -8 -132 55
-192 111 -32 30 -56 56 -53 59 4 3 268 82 290 86 3 0 24 -27 46 -62z m42 -166
c18 -22 32 -42 32 -45 0 -3 -27 -6 -60 -6 -33 0 -60 2 -60 5 0 13 41 85 49 85
4 0 22 -18 39 -39z"/>
<path d="M828 727 c-4 -19 -1 -27 8 -27 15 0 16 6 5 35 -7 17 -8 17 -13 -8z"/>
</g>
</svg>
